<?xml version="1.0" standalone="no"?>
<!DOCTYPE svg PUBLIC "-//W3C//DTD SVG 1.1//EN" "http://www.w3.org/Graphics/SVG/1.1/DTD/svg11.dtd">
<svg width="200px" height="200px" version="1.1" xmlns="http://www.w3.org/2000/svg" xmlns:xlink="http://www.w3.org/1999/xlink" xml:space="preserve" style="fill-rule:evenodd;clip-rule:evenodd;stroke-linejoin:round;stroke-miterlimit:1.41421;">
    <g>
        <g>
            <g>
                <path d="M55.5973,179.552L62.6713,161.813L67.2421,161.813L55.7062,189.927L43.3722,161.813L48.0155,161.813L55.5973,179.552Z" style="fill:rgb(5,163,219);fill-rule:nonzero;"/>
                <path d="M74.0261,186.59C72.9739,185.792 72.1761,184.812 71.6318,183.688C71.015,182.454 70.7247,181.076 70.7247,179.589L70.7247,161.813L74.9331,161.813L74.9331,179.589C74.9331,181.184 75.5134,182.418 76.6017,183.252C77.6174,184.051 79.1047,184.522 80.7009,184.522C82.2609,184.522 83.7482,184.051 84.8001,183.252C85.8885,182.418 86.4328,181.184 86.4328,179.589L86.4328,161.813L90.6771,161.813L90.6771,179.589C90.6771,181.076 90.3506,182.454 89.7701,183.688C89.1898,184.812 88.3917,185.792 87.3757,186.59C85.5985,187.968 83.2404,188.73 80.7009,188.73C78.1617,188.73 75.8036,187.968 74.0261,186.59" style="fill:rgb(5,163,219);fill-rule:nonzero;"/>
                <rect x="96.046" y="161.813" width="4.20809" height="26.9175" style="fill:rgb(5,163,219);fill-rule:nonzero;"/>
                <path d="M120.714,188.73L110.048,176.541L110.048,188.73L105.84,188.73L105.84,161.813L110.048,161.813L110.048,172.914L118.682,161.813L123.979,161.813L114.112,174.764L125.974,188.73L120.714,188.73Z" style="fill:rgb(5,163,219);fill-rule:nonzero;"/>
                <rect x="129.529" y="161.813" width="4.20809" height="26.9175" style="fill:rgb(5,163,219);fill-rule:nonzero;"/>
                <path d="M156.628,165.586L149.227,165.586L149.227,188.73L144.983,188.73L144.983,165.586L137.583,165.586L137.583,161.813L156.628,161.813L156.628,165.586Z" style="fill:rgb(5,163,219);fill-rule:nonzero;"/>
            </g>
            <g>
                <path d="M84.7391,121.873L0,73.6813L41.343,47.4236L84.7391,121.873Z" style="fill:rgb(50,72,97);fill-rule:nonzero;"/>
                <path d="M131.476,28.2348L116.089,28.2348L100.001,56.1725L83.7289,28.2348L71.5572,28.2348L100.154,10.0725L131.476,28.2348Z" style="fill:rgb(50,72,97);fill-rule:nonzero;"/>
                <path d="M200,67.9658L114.961,123.239L160.215,44.8967L200,67.9658Z" style="fill:rgb(5,163,219);fill-rule:nonzero;"/>
                <path d="M160.215,44.8967L114.961,123.239L101.978,131.678L84.7391,121.873L41.343,47.4236L71.5572,28.2348L83.7289,28.2348L100.001,56.1725L116.089,28.2348L131.476,28.2348L160.215,44.8967Z" style="fill:white;fill-rule:nonzero;"/>
                <path d="M71.5571,28.2348L41.343,47.4236L30.1597,28.2348L71.5571,28.2348Z" style="fill:rgb(44,183,127);fill-rule:nonzero;"/>
                <path d="M115.036,123.239L100.389,148.596L84.8137,121.873L102.053,131.678L115.036,123.239Z" style="fill:rgb(44,183,127);fill-rule:nonzero;"/>
                <path d="M169.84,28.2348L160.215,44.8967L131.476,28.2348L169.84,28.2348Z" style="fill:rgb(44,183,127);fill-rule:nonzero;"/>
            </g>
        </g>
    </g>
</svg>
